<svg xmlns="http://www.w3.org/2000/svg" xmlns:xlink="http://www.w3.org/1999/xlink" contentStyleType="text/css" height="142px" preserveAspectRatio="none" style="width:239px;height:142px;background:#FFFFFF;" version="1.1" viewBox="0 0 239 142" width="239px" zoomAndPan="magnify"><defs/><g><line style="stroke:#181818;stroke-width:0.5;stroke-dasharray:5.0,5.0;" x1="35" x2="35" y1="39.0679" y2="104.7739"/><line style="stroke:#181818;stroke-width:0.5;stroke-dasharray:5.0,5.0;" x1="187.2302" x2="187.2302" y1="39.0679" y2="104.7739"/><rect fill="#E2E2F0" height="33.0679" rx="2.5" ry="2.5" style="stroke:#181818;stroke-width:0.5;" width="60.7038" x="5" y="5"/><text fill="#000000" font-family="sans-serif" font-size="14" lengthAdjust="spacing" textLength="46.7038" x="12" y="26.9659">Service</text><rect fill="#E2E2F0" height="33.0679" rx="2.5" ry="2.5" style="stroke:#181818;stroke-width:0.5;" width="60.7038" x="5" y="103.7739"/><text fill="#000000" font-family="sans-serif" font-size="14" lengthAdjust="spacing" textLength="46.7038" x="12" y="125.7399">Service</text><rect fill="#E2E2F0" height="33.0679" rx="2.5" ry="2.5" style="stroke:#181818;stroke-width:0.5;" width="92.5257" x="141.2302" y="5"/><text fill="#000000" font-family="sans-serif" font-size="14" lengthAdjust="spacing" textLength="78.5257" x="148.2302" y="26.9659">privacyIDEA</text><rect fill="#E2E2F0" height="33.0679" rx="2.5" ry="2.5" style="stroke:#181818;stroke-width:0.5;" width="92.5257" x="141.2302" y="103.7739"/><text fill="#000000" font-family="sans-serif" font-size="14" lengthAdjust="spacing" textLength="78.5257" x="148.2302" y="125.7399">privacyIDEA</text><polygon fill="#181818" points="175.493,68.7739,185.493,72.7739,175.493,76.7739,179.493,72.7739" style="stroke:#181818;stroke-width:1.0;"/><line style="stroke:#181818;stroke-width:1.0;" x1="35.3519" x2="181.493" y1="72.7739" y2="72.7739"/><text fill="#000000" font-family="sans-serif" font-size="13" lengthAdjust="spacing" textLength="128.1411" x="42.3519" y="66.9649">POST /validate/check</text><polygon fill="#181818" points="46.3519,82.7739,36.3519,86.7739,46.3519,90.7739,42.3519,86.7739" style="stroke:#181818;stroke-width:1.0;"/><line style="stroke:#181818;stroke-width:1.0;stroke-dasharray:2.0,2.0;" x1="40.3519" x2="186.493" y1="86.7739" y2="86.7739"/><!--SRC=[2qujAijCJbNGjLCeACeiIqokz7HnTRHI2F0F3b7GBqlCoKn9B4dLJyv8JSxc2eOgjj7LHLOD0000]--></g></svg>
