<svg xmlns="http://www.w3.org/2000/svg" xmlns:xlink="http://www.w3.org/1999/xlink" contentStyleType="text/css" height="395px" preserveAspectRatio="none" style="width:433px;height:395px;background:#FFFFFF;" version="1.1" viewBox="0 0 433 395" width="433px" zoomAndPan="magnify"><defs/><g><rect fill="none" height="163.512" style="stroke:#000000;stroke-width:1.5;" width="315.0429" x="10" y="56.0679"/><line style="stroke:#181818;stroke-width:0.5;stroke-dasharray:5.0,5.0;" x1="50" x2="50" y1="39.0679" y2="258.2859"/><line style="stroke:#A80036;stroke-width:1.0;stroke-dasharray:1.0,4.0;" x1="50" x2="50" y1="258.2859" y2="301.2678"/><line style="stroke:#181818;stroke-width:0.5;stroke-dasharray:5.0,5.0;" x1="50" x2="50" y1="301.2678" y2="356.9738"/><line style="stroke:#181818;stroke-width:0.5;stroke-dasharray:5.0,5.0;" x1="268.5172" x2="268.5172" y1="39.0679" y2="258.2859"/><line style="stroke:#A80036;stroke-width:1.0;stroke-dasharray:1.0,4.0;" x1="268.5172" x2="268.5172" y1="258.2859" y2="301.2678"/><line style="stroke:#181818;stroke-width:0.5;stroke-dasharray:5.0,5.0;" x1="268.5172" x2="268.5172" y1="301.2678" y2="356.9738"/><line style="stroke:#181818;stroke-width:0.5;stroke-dasharray:5.0,5.0;" x1="376.0429" x2="376.0429" y1="39.0679" y2="258.2859"/><line style="stroke:#A80036;stroke-width:1.0;stroke-dasharray:1.0,4.0;" x1="376.0429" x2="376.0429" y1="258.2859" y2="301.2678"/><line style="stroke:#181818;stroke-width:0.5;stroke-dasharray:5.0,5.0;" x1="376.0429" x2="376.0429" y1="301.2678" y2="356.9738"/><rect fill="#E2E2F0" height="33.0679" rx="2.5" ry="2.5" style="stroke:#181818;stroke-width:0.5;" width="60.7038" x="20" y="5"/><text fill="#000000" font-family="sans-serif" font-size="14" lengthAdjust="spacing" textLength="46.7038" x="27" y="26.9659">Service</text><rect fill="#E2E2F0" height="33.0679" rx="2.5" ry="2.5" style="stroke:#181818;stroke-width:0.5;" width="60.7038" x="20" y="355.9738"/><text fill="#000000" font-family="sans-serif" font-size="14" lengthAdjust="spacing" textLength="46.7038" x="27" y="377.9397">Service</text><rect fill="#E2E2F0" height="33.0679" rx="2.5" ry="2.5" style="stroke:#181818;stroke-width:0.5;" width="92.5257" x="222.5172" y="5"/><text fill="#000000" font-family="sans-serif" font-size="14" lengthAdjust="spacing" textLength="78.5257" x="229.5172" y="26.9659">privacyIDEA</text><rect fill="#E2E2F0" height="33.0679" rx="2.5" ry="2.5" style="stroke:#181818;stroke-width:0.5;" width="92.5257" x="222.5172" y="355.9738"/><text fill="#000000" font-family="sans-serif" font-size="14" lengthAdjust="spacing" textLength="78.5257" x="229.5172" y="377.9397">privacyIDEA</text><rect fill="#E2E2F0" height="33.0679" rx="2.5" ry="2.5" style="stroke:#181818;stroke-width:0.5;" width="102.7037" x="325.0429" y="5"/><text fill="#000000" font-family="sans-serif" font-size="14" lengthAdjust="spacing" textLength="88.7037" x="332.0429" y="26.9659">SMS Gateway</text><rect fill="#E2E2F0" height="33.0679" rx="2.5" ry="2.5" style="stroke:#181818;stroke-width:0.5;" width="102.7037" x="325.0429" y="355.9738"/><text fill="#000000" font-family="sans-serif" font-size="14" lengthAdjust="spacing" textLength="88.7037" x="332.0429" y="377.9397">SMS Gateway</text><path d="M10,56.0679 L71.5588,56.0679 L71.5588,65.7739 L61.5588,75.7739 L10,75.7739 L10,56.0679 " fill="#EEEEEE" style="stroke:#000000;stroke-width:1.5;"/><rect fill="none" height="163.512" style="stroke:#000000;stroke-width:1.5;" width="315.0429" x="10" y="56.0679"/><text fill="#000000" font-family="sans-serif" font-size="13" font-weight="bold" lengthAdjust="spacing" textLength="16.5588" x="25" y="70.9649">alt</text><text fill="#000000" font-family="sans-serif" font-size="11" font-weight="bold" lengthAdjust="spacing" textLength="51.8454" x="86.5588" y="69.8268">[with pin]</text><polygon fill="#181818" points="256.7801,95.4799,266.7801,99.4799,256.7801,103.4799,260.7801,99.4799" style="stroke:#181818;stroke-width:1.0;"/><line style="stroke:#181818;stroke-width:1.0;" x1="50.3519" x2="262.7801" y1="99.4799" y2="99.4799"/><text fill="#000000" font-family="sans-serif" font-size="13" lengthAdjust="spacing" textLength="128.1411" x="57.3519" y="93.6709">POST /validate/check</text><polygon fill="#181818" points="61.3519,127.186,51.3519,131.186,61.3519,135.186,57.3519,131.186" style="stroke:#181818;stroke-width:1.0;"/><line style="stroke:#181818;stroke-width:1.0;stroke-dasharray:2.0,2.0;" x1="55.3519" x2="267.7801" y1="131.186" y2="131.186"/><text fill="#000000" font-family="sans-serif" font-size="13" lengthAdjust="spacing" textLength="86.2161" x="67.3519" y="125.377">transaction_id</text><line style="stroke:#000000;stroke-width:1.0;stroke-dasharray:2.0,2.0;" x1="10" x2="325.0429" y1="140.186" y2="140.186"/><text fill="#000000" font-family="sans-serif" font-size="11" font-weight="bold" lengthAdjust="spacing" textLength="70.3005" x="15" y="151.9449">[without pin]</text><polygon fill="#181818" points="256.7801,175.8739,266.7801,179.8739,256.7801,183.8739,260.7801,179.8739" style="stroke:#181818;stroke-width:1.0;"/><line style="stroke:#181818;stroke-width:1.0;" x1="50.3519" x2="262.7801" y1="179.8739" y2="179.8739"/><text fill="#000000" font-family="sans-serif" font-size="13" lengthAdjust="spacing" textLength="194.4282" x="57.3519" y="174.0649">POST /validate/triggerchallenge</text><polygon fill="#181818" points="61.3519,207.5799,51.3519,211.5799,61.3519,215.5799,57.3519,211.5799" style="stroke:#181818;stroke-width:1.0;"/><line style="stroke:#181818;stroke-width:1.0;stroke-dasharray:2.0,2.0;" x1="55.3519" x2="267.7801" y1="211.5799" y2="211.5799"/><text fill="#000000" font-family="sans-serif" font-size="13" lengthAdjust="spacing" textLength="86.2161" x="67.3519" y="205.7709">transaction_id</text><polygon fill="#181818" points="364.3947,246.2859,374.3947,250.2859,364.3947,254.2859,368.3947,250.2859" style="stroke:#181818;stroke-width:1.0;"/><line style="stroke:#181818;stroke-width:1.0;" x1="268.7801" x2="370.3947" y1="250.2859" y2="250.2859"/><text fill="#000000" font-family="sans-serif" font-size="13" lengthAdjust="spacing" textLength="25.246" x="275.7801" y="244.4769">OTP</text><text fill="#000000" font-family="sans-serif" font-size="11" lengthAdjust="spacing" textLength="137.169" x="144.7888" y="284.0448">User enters OTP from SMS</text><polygon fill="#181818" points="256.7801,320.9738,266.7801,324.9738,256.7801,328.9738,260.7801,324.9738" style="stroke:#181818;stroke-width:1.0;"/><line style="stroke:#181818;stroke-width:1.0;" x1="50.3519" x2="262.7801" y1="324.9738" y2="324.9738"/><text fill="#000000" font-family="sans-serif" font-size="13" lengthAdjust="spacing" textLength="128.1411" x="57.3519" y="319.1648">POST /validate/check</text><polygon fill="#181818" points="61.3519,334.9738,51.3519,338.9738,61.3519,342.9738,57.3519,338.9738" style="stroke:#181818;stroke-width:1.0;"/><line style="stroke:#181818;stroke-width:1.0;stroke-dasharray:2.0,2.0;" x1="55.3519" x2="267.7801" y1="338.9738" y2="338.9738"/><!--SRC=[bP2n2eD038RtF4LmLtSfXK9BwL0KpiubdAc6Na-vkog-VSzETkZWak7FHxwVa0auIUXm40k0gDYDeXdJFGvEHjBpvNWw55YLgiPy92CD1Svrn_gvmdTf-ii7HzQJ3jBRkpG0R3n_HVqxR7G59stBJdTa3DkMDsbj72jYSINggl0SBqyq9mMMTGMGPTdDiqEsWPrVCdou_eKHZIk0JM_vq-u3]--></g></svg>
