<svg xmlns="http://www.w3.org/2000/svg" xmlns:xlink="http://www.w3.org/1999/xlink" contentStyleType="text/css" height="643px" preserveAspectRatio="none" style="width:568px;height:643px;background:#FFFFFF;" version="1.1" viewBox="0 0 568 643" width="568px" zoomAndPan="magnify"><defs/><g><rect fill="none" height="163.512" style="stroke:#000000;stroke-width:1.5;" width="315.0429" x="10" y="56.0679"/><rect fill="none" height="83.118" style="stroke:#000000;stroke-width:1.5;" width="315.0429" x="10" y="296.9919"/><line style="stroke:#181818;stroke-width:0.5;stroke-dasharray:5.0,5.0;" x1="50" x2="50" y1="39.0679" y2="387.11"/><line style="stroke:#A80036;stroke-width:1.0;stroke-dasharray:1.0,4.0;" x1="50" x2="50" y1="387.11" y2="430.0919"/><line style="stroke:#181818;stroke-width:0.5;stroke-dasharray:5.0,5.0;" x1="50" x2="50" y1="430.0919" y2="605.9159"/><line style="stroke:#181818;stroke-width:0.5;stroke-dasharray:5.0,5.0;" x1="268.5172" x2="268.5172" y1="39.0679" y2="387.11"/><line style="stroke:#A80036;stroke-width:1.0;stroke-dasharray:1.0,4.0;" x1="268.5172" x2="268.5172" y1="387.11" y2="430.0919"/><line style="stroke:#181818;stroke-width:0.5;stroke-dasharray:5.0,5.0;" x1="268.5172" x2="268.5172" y1="430.0919" y2="605.9159"/><line style="stroke:#181818;stroke-width:0.5;stroke-dasharray:5.0,5.0;" x1="400.5843" x2="400.5843" y1="39.0679" y2="387.11"/><line style="stroke:#A80036;stroke-width:1.0;stroke-dasharray:1.0,4.0;" x1="400.5843" x2="400.5843" y1="387.11" y2="430.0919"/><line style="stroke:#181818;stroke-width:0.5;stroke-dasharray:5.0,5.0;" x1="400.5843" x2="400.5843" y1="430.0919" y2="605.9159"/><line style="stroke:#181818;stroke-width:0.5;stroke-dasharray:5.0,5.0;" x1="533.9403" x2="533.9403" y1="39.0679" y2="387.11"/><line style="stroke:#A80036;stroke-width:1.0;stroke-dasharray:1.0,4.0;" x1="533.9403" x2="533.9403" y1="387.11" y2="430.0919"/><line style="stroke:#181818;stroke-width:0.5;stroke-dasharray:5.0,5.0;" x1="533.9403" x2="533.9403" y1="430.0919" y2="605.9159"/><rect fill="#E2E2F0" height="33.0679" rx="2.5" ry="2.5" style="stroke:#181818;stroke-width:0.5;" width="60.7038" x="20" y="5"/><text fill="#000000" font-family="sans-serif" font-size="14" lengthAdjust="spacing" textLength="46.7038" x="27" y="26.9659">Service</text><rect fill="#E2E2F0" height="33.0679" rx="2.5" ry="2.5" style="stroke:#181818;stroke-width:0.5;" width="60.7038" x="20" y="604.9159"/><text fill="#000000" font-family="sans-serif" font-size="14" lengthAdjust="spacing" textLength="46.7038" x="27" y="626.8819">Service</text><rect fill="#E2E2F0" height="33.0679" rx="2.5" ry="2.5" style="stroke:#181818;stroke-width:0.5;" width="92.5257" x="222.5172" y="5"/><text fill="#000000" font-family="sans-serif" font-size="14" lengthAdjust="spacing" textLength="78.5257" x="229.5172" y="26.9659">privacyIDEA</text><rect fill="#E2E2F0" height="33.0679" rx="2.5" ry="2.5" style="stroke:#181818;stroke-width:0.5;" width="92.5257" x="222.5172" y="604.9159"/><text fill="#000000" font-family="sans-serif" font-size="14" lengthAdjust="spacing" textLength="78.5257" x="229.5172" y="626.8819">privacyIDEA</text><rect fill="#E2E2F0" height="33.0679" rx="2.5" ry="2.5" style="stroke:#181818;stroke-width:0.5;" width="69.6218" x="366.5843" y="5"/><text fill="#000000" font-family="sans-serif" font-size="14" lengthAdjust="spacing" textLength="55.6218" x="373.5843" y="26.9659">Firebase</text><rect fill="#E2E2F0" height="33.0679" rx="2.5" ry="2.5" style="stroke:#181818;stroke-width:0.5;" width="69.6218" x="366.5843" y="604.9159"/><text fill="#000000" font-family="sans-serif" font-size="14" lengthAdjust="spacing" textLength="55.6218" x="373.5843" y="626.8819">Firebase</text><rect fill="#E2E2F0" height="33.0679" rx="2.5" ry="2.5" style="stroke:#181818;stroke-width:0.5;" width="56.1398" x="505.9403" y="5"/><text fill="#000000" font-family="sans-serif" font-size="14" lengthAdjust="spacing" textLength="42.1398" x="512.9403" y="26.9659">Phone</text><rect fill="#E2E2F0" height="33.0679" rx="2.5" ry="2.5" style="stroke:#181818;stroke-width:0.5;" width="56.1398" x="505.9403" y="604.9159"/><text fill="#000000" font-family="sans-serif" font-size="14" lengthAdjust="spacing" textLength="42.1398" x="512.9403" y="626.8819">Phone</text><path d="M10,56.0679 L71.5588,56.0679 L71.5588,65.7739 L61.5588,75.7739 L10,75.7739 L10,56.0679 " fill="#EEEEEE" style="stroke:#000000;stroke-width:1.5;"/><rect fill="none" height="163.512" style="stroke:#000000;stroke-width:1.5;" width="315.0429" x="10" y="56.0679"/><text fill="#000000" font-family="sans-serif" font-size="13" font-weight="bold" lengthAdjust="spacing" textLength="16.5588" x="25" y="70.9649">alt</text><text fill="#000000" font-family="sans-serif" font-size="11" font-weight="bold" lengthAdjust="spacing" textLength="51.8454" x="86.5588" y="69.8268">[with pin]</text><polygon fill="#181818" points="256.7801,95.4799,266.7801,99.4799,256.7801,103.4799,260.7801,99.4799" style="stroke:#181818;stroke-width:1.0;"/><line style="stroke:#181818;stroke-width:1.0;" x1="50.3519" x2="262.7801" y1="99.4799" y2="99.4799"/><text fill="#000000" font-family="sans-serif" font-size="13" lengthAdjust="spacing" textLength="128.1411" x="57.3519" y="93.6709">POST /validate/check</text><polygon fill="#181818" points="61.3519,127.186,51.3519,131.186,61.3519,135.186,57.3519,131.186" style="stroke:#181818;stroke-width:1.0;"/><line style="stroke:#181818;stroke-width:1.0;stroke-dasharray:2.0,2.0;" x1="55.3519" x2="267.7801" y1="131.186" y2="131.186"/><text fill="#000000" font-family="sans-serif" font-size="13" lengthAdjust="spacing" textLength="86.2161" x="67.3519" y="125.377">transaction_id</text><line style="stroke:#000000;stroke-width:1.0;stroke-dasharray:2.0,2.0;" x1="10" x2="325.0429" y1="140.186" y2="140.186"/><text fill="#000000" font-family="sans-serif" font-size="11" font-weight="bold" lengthAdjust="spacing" textLength="70.3005" x="15" y="151.9449">[without pin]</text><polygon fill="#181818" points="256.7801,175.8739,266.7801,179.8739,256.7801,183.8739,260.7801,179.8739" style="stroke:#181818;stroke-width:1.0;"/><line style="stroke:#181818;stroke-width:1.0;" x1="50.3519" x2="262.7801" y1="179.8739" y2="179.8739"/><text fill="#000000" font-family="sans-serif" font-size="13" lengthAdjust="spacing" textLength="194.4282" x="57.3519" y="174.0649">POST /validate/triggerchallenge</text><polygon fill="#181818" points="61.3519,207.5799,51.3519,211.5799,61.3519,215.5799,57.3519,211.5799" style="stroke:#181818;stroke-width:1.0;"/><line style="stroke:#181818;stroke-width:1.0;stroke-dasharray:2.0,2.0;" x1="55.3519" x2="267.7801" y1="211.5799" y2="211.5799"/><text fill="#000000" font-family="sans-serif" font-size="13" lengthAdjust="spacing" textLength="86.2161" x="67.3519" y="205.7709">transaction_id</text><polygon fill="#181818" points="389.3952,246.2859,399.3952,250.2859,389.3952,254.2859,393.3952,250.2859" style="stroke:#181818;stroke-width:1.0;"/><line style="stroke:#181818;stroke-width:1.0;" x1="268.7801" x2="395.3952" y1="250.2859" y2="250.2859"/><text fill="#000000" font-family="sans-serif" font-size="13" lengthAdjust="spacing" textLength="108.6151" x="275.7801" y="244.4769">PUSH Notification</text><polygon fill="#181818" points="522.0103,277.9919,532.0103,281.9919,522.0103,285.9919,526.0103,281.9919" style="stroke:#181818;stroke-width:1.0;"/><line style="stroke:#181818;stroke-width:1.0;" x1="401.3952" x2="528.0103" y1="281.9919" y2="281.9919"/><text fill="#000000" font-family="sans-serif" font-size="13" lengthAdjust="spacing" textLength="108.6151" x="408.3952" y="276.1829">PUSH Notification</text><path d="M10,296.9919 L83.704,296.9919 L83.704,306.6979 L73.704,316.6979 L10,316.6979 L10,296.9919 " fill="#EEEEEE" style="stroke:#000000;stroke-width:1.5;"/><rect fill="none" height="83.118" style="stroke:#000000;stroke-width:1.5;" width="315.0429" x="10" y="296.9919"/><text fill="#000000" font-family="sans-serif" font-size="13" font-weight="bold" lengthAdjust="spacing" textLength="28.704" x="25" y="311.8889">loop</text><text fill="#000000" font-family="sans-serif" font-size="11" font-weight="bold" lengthAdjust="spacing" textLength="91.9924" x="98.704" y="310.7508">[until confirmed]</text><polygon fill="#181818" points="256.7801,336.404,266.7801,340.404,256.7801,344.404,260.7801,340.404" style="stroke:#181818;stroke-width:1.0;"/><line style="stroke:#181818;stroke-width:1.0;" x1="50.3519" x2="262.7801" y1="340.404" y2="340.404"/><text fill="#000000" font-family="sans-serif" font-size="13" lengthAdjust="spacing" textLength="176.5531" x="57.3519" y="334.595">GET /validate/polltransaction</text><polygon fill="#181818" points="61.3519,368.11,51.3519,372.11,61.3519,376.11,57.3519,372.11" style="stroke:#181818;stroke-width:1.0;"/><line style="stroke:#181818;stroke-width:1.0;stroke-dasharray:2.0,2.0;" x1="55.3519" x2="267.7801" y1="372.11" y2="372.11"/><text fill="#000000" font-family="sans-serif" font-size="13" lengthAdjust="spacing" textLength="28.678" x="67.3519" y="366.301">false</text><text fill="#000000" font-family="sans-serif" font-size="11" lengthAdjust="spacing" textLength="161.7868" x="211.2877" y="412.8689">User confirms sign in on phone</text><polygon fill="#181818" points="279.7801,449.7979,269.7801,453.7979,279.7801,457.7979,275.7801,453.7979" style="stroke:#181818;stroke-width:1.0;"/><line style="stroke:#181818;stroke-width:1.0;" x1="273.7801" x2="533.0103" y1="453.7979" y2="453.7979"/><text fill="#000000" font-family="sans-serif" font-size="13" lengthAdjust="spacing" textLength="107.0681" x="285.7801" y="447.9889">POST /ttype/push</text><polygon fill="#181818" points="256.7801,481.5039,266.7801,485.5039,256.7801,489.5039,260.7801,485.5039" style="stroke:#181818;stroke-width:1.0;"/><line style="stroke:#181818;stroke-width:1.0;" x1="50.3519" x2="262.7801" y1="485.5039" y2="485.5039"/><text fill="#000000" font-family="sans-serif" font-size="13" lengthAdjust="spacing" textLength="176.5531" x="57.3519" y="479.6949">GET /validate/polltransaction</text><polygon fill="#181818" points="61.3519,513.2099,51.3519,517.2099,61.3519,521.2099,57.3519,517.2099" style="stroke:#181818;stroke-width:1.0;"/><line style="stroke:#181818;stroke-width:1.0;stroke-dasharray:2.0,2.0;" x1="55.3519" x2="267.7801" y1="517.2099" y2="517.2099"/><text fill="#000000" font-family="sans-serif" font-size="13" lengthAdjust="spacing" textLength="25.428" x="67.3519" y="511.4009">true</text><polygon fill="#181818" points="256.7801,569.9159,266.7801,573.9159,256.7801,577.9159,260.7801,573.9159" style="stroke:#181818;stroke-width:1.0;"/><line style="stroke:#181818;stroke-width:1.0;" x1="50.3519" x2="262.7801" y1="573.9159" y2="573.9159"/><text fill="#000000" font-family="sans-serif" font-size="13" lengthAdjust="spacing" textLength="128.1411" x="57.3519" y="568.1069">POST /validate/check</text><polygon fill="#181818" points="61.3519,583.9159,51.3519,587.9159,61.3519,591.9159,57.3519,587.9159" style="stroke:#181818;stroke-width:1.0;"/><line style="stroke:#181818;stroke-width:1.0;stroke-dasharray:2.0,2.0;" x1="55.3519" x2="267.7801" y1="587.9159" y2="587.9159"/><!--SRC=[dPBBQiCm44NtynNp0tRsfHGAJH-RDk1cNLHvR0zHHq8QkmJyyPL30ox4XdIZZOxct3l8ECLlrWu32m1YHN5WIrZSOOWy67jyUTZUt-3khNh7pM0SrqPfOpkoXnb-MnH_UOr6ah7ANZwu1Y2Nw2JolLxfqiXjIz5snZcIbgxIIZvcnEHwv4YV9b4MxQjdVFNA3LiplO7ptSJjEYyN8N3U1-n5sQ7rqd3yedgjqDDstYTuvsOvr-eq9g_jjqLPblj4yMnCcBWLP44l6AQe6G0uXLxOgEenP7sVEe3_HLtPUvzpZkEuFFdY3reO-0C0]--></g></svg>
