<svg xmlns="http://www.w3.org/2000/svg" xmlns:xlink="http://www.w3.org/1999/xlink" contentStyleType="text/css" height="759px" preserveAspectRatio="none" style="width:556px;height:759px;background:#FFFFFF;" version="1.1" viewBox="0 0 556 759" width="556px" zoomAndPan="magnify"><defs/><g><!--cluster On Prem--><g id="cluster_On Prem"><rect fill="none" height="618.77" rx="2.5" ry="2.5" style="stroke:#181818;stroke-width:1.0;" width="308" x="242.88" y="7"/><text fill="#000000" font-family="sans-serif" font-size="14" font-weight="bold" lengthAdjust="spacing" textLength="61.0888" x="366.3356" y="23.9659">On Prem</text></g><!--cluster SAML--><g id="cluster_SAML"><rect fill="none" height="246.14" rx="2.5" ry="2.5" style="stroke:#181818;stroke-width:1.0;" width="182" x="316.88" y="53"/><line style="stroke:#181818;stroke-width:1.0;" x1="316.88" x2="498.88" y1="76.0679" y2="76.0679"/><text fill="#000000" font-family="sans-serif" font-size="14" font-weight="bold" lengthAdjust="spacing" textLength="38.4159" x="388.6721" y="69.9659">SAML</text></g><!--cluster 1st Factor--><g id="cluster_1st Factor"><rect fill="none" height="102.06" rx="2.5" ry="2.5" style="stroke:#181818;stroke-width:1.0;" width="86" x="440.88" y="350.64"/><line style="stroke:#181818;stroke-width:1.0;" x1="440.88" x2="526.88" y1="373.7079" y2="373.7079"/><text fill="#000000" font-family="sans-serif" font-size="14" font-weight="bold" lengthAdjust="spacing" textLength="68.4913" x="449.6344" y="367.6059">1st Factor</text></g><!--cluster 2nd Factor--><g id="cluster_2nd Factor"><rect fill="none" height="251.63" rx="2.5" ry="2.5" style="stroke:#181818;stroke-width:1.0;" width="150" x="266.88" y="350.14"/><line style="stroke:#181818;stroke-width:1.0;" x1="266.88" x2="416.88" y1="373.2079" y2="373.2079"/><text fill="#000000" font-family="sans-serif" font-size="14" font-weight="bold" lengthAdjust="spacing" textLength="73.9932" x="304.8834" y="367.1059">2nd Factor</text></g><!--cluster Cloud--><g id="cluster_Cloud"><path d="M107.7264,511.9525 C111.4286,505.006 116.481,503.4631 122.2292,509.7021 C127.0583,500.73 132.4743,499.7274 139.5616,507.3425 C143.9835,498.3418 149.0888,498.5072 155.7799,504.9612 C162.5788,497.0469 169.5919,497.8244 173.6234,507.732 C179.8669,501.0239 184.9536,500.6801 189.3147,509.6196 C199.0221,502.8316 209.8534,504.8715 210.88,518.7 C211.7048,518.4486 212.2851,518.8769 212.0088,519.7782 C220.3592,525.5875 220.6453,531.1388 212.4613,537.3733 C222.2661,541.6387 221.5152,548.8747 214.2852,554.9117 C223.4913,557.6582 225.2062,566.1529 217.8019,572.2653 C225.0717,576.7023 226.6269,583.3331 218.4467,588.388 C227.7686,593.2528 228.0935,598.8436 220.6158,605.8012 C227.5946,610.6125 227.1785,615.5715 221.2697,620.9394 C228.7209,628.1314 229.7419,634.2982 219.0134,639.2499 C225.3977,645.4977 226.8109,651.5546 217.3331,656.233 C226.0542,662.5067 224.4947,667.9006 216.51,673.3721 C223.7798,678.3181 225.4172,687.1687 215.8266,691.4782 C222.8669,697.9621 221.7842,702.9535 213.8604,707.614 C221.5225,720.1538 218.3746,727.2494 203.88,729.84 C204.6434,730.0066 204.9209,730.3731 204.5025,731.1162 C202.1343,738.8889 196.7479,742.8558 189.4408,736.3122 C185.4469,745.5792 180.4204,747.9662 172.576,740.103 C169.9991,748.8799 162.4843,752.3153 155.3986,744.8804 C149.0772,750.1644 142.9246,748.8466 140.3643,740.6773 C132.1638,746.989 124.8514,743.8022 122.5015,734.1363 C111.4884,741.7553 100.0281,735.8495 98.88,722.84 C99.3295,722.1911 100.0224,722.218 100.4206,722.8994 C92.9338,717.9499 92.485,712.8756 98.9406,706.6557 C91.0371,701.8643 90.4599,695.0253 98.3488,689.6832 C90.8801,684.133 89.5318,678.6469 98.5067,673.2548 C89.6343,669.506 88.4496,661.4076 96.8606,656.0092 C89.4473,651.7938 89.4399,643.5035 96.6608,639.1151 C88.3798,634.8474 90.2663,627.1462 96.8179,623.0233 C87.4826,618.6059 87.4372,610.3302 95.9338,605.0363 C89.5667,600.2673 88.7725,594.1822 96.0019,589.4727 C86.105,584.0889 88.4344,575.0687 97.0927,570.7669 C90.7341,565.2996 91.8927,557.38 99.7234,554.1605 C92.7933,549.9056 91.7079,542.2287 99.1885,537.5107 C88.0952,527.5684 91.635,515.0732 105.88,511.7 C106.4733,510.8031 107.3745,511.0836 107.7264,511.9525 " fill="none" style="stroke:#181818;stroke-width:1.0;"/><text fill="#000000" font-family="sans-serif" font-size="14" font-weight="bold" lengthAdjust="spacing" textLength="40.3793" x="134.6903" y="531.6659">Cloud</text></g><!--entity SP--><g id="elem_SP"><polygon fill="#F1F1F1" points="332.84,101,342.84,91,478.9176,91,478.9176,130.0679,468.9176,140.0679,332.84,140.0679,332.84,101" style="stroke:#181818;stroke-width:0.5;"/><line style="stroke:#181818;stroke-width:0.5;" x1="468.9176" x2="478.9176" y1="101" y2="91"/><line style="stroke:#181818;stroke-width:0.5;" x1="332.84" x2="468.9176" y1="101" y2="101"/><line style="stroke:#181818;stroke-width:0.5;" x1="468.9176" x2="468.9176" y1="101" y2="140.0679"/><text fill="#000000" font-family="sans-serif" font-size="14" lengthAdjust="spacing" textLength="106.0776" x="347.84" y="125.9659">Service Provider</text></g><!--entity IDP--><g id="elem_IDP"><polygon fill="#F1F1F1" points="332.81,244.07,342.81,234.07,482.9476,234.07,482.9476,273.1379,472.9476,283.1379,332.81,283.1379,332.81,244.07" style="stroke:#181818;stroke-width:0.5;"/><line style="stroke:#181818;stroke-width:0.5;" x1="472.9476" x2="482.9476" y1="244.07" y2="234.07"/><line style="stroke:#181818;stroke-width:0.5;" x1="332.81" x2="472.9476" y1="244.07" y2="244.07"/><line style="stroke:#181818;stroke-width:0.5;" x1="472.9476" x2="472.9476" y1="244.07" y2="283.1379"/><text fill="#000000" font-family="sans-serif" font-size="14" lengthAdjust="spacing" textLength="110.1376" x="347.81" y="269.0359">Identity Provider</text></g><!--entity LDAP--><g id="elem_LDAP"><path d="M456.39,398.64 C456.39,388.64 483.8759,388.64 483.8759,388.64 C483.8759,388.64 511.3619,388.64 511.3619,398.64 L511.3619,426.7079 C511.3619,436.7079 483.8759,436.7079 483.8759,436.7079 C483.8759,436.7079 456.39,436.7079 456.39,426.7079 L456.39,398.64 " fill="#F1F1F1" style="stroke:#181818;stroke-width:0.5;"/><path d="M456.39,398.64 C456.39,408.64 483.8759,408.64 483.8759,408.64 C483.8759,408.64 511.3619,408.64 511.3619,398.64 " fill="none" style="stroke:#181818;stroke-width:0.5;"/><text fill="#000000" font-family="sans-serif" font-size="14" lengthAdjust="spacing" textLength="34.9719" x="466.39" y="427.6059">LDAP</text></g><!--entity PI--><g id="elem_PI"><polygon fill="#F1F1F1" points="282.62,398.14,292.62,388.14,401.1457,388.14,401.1457,427.2079,391.1457,437.2079,282.62,437.2079,282.62,398.14" style="stroke:#181818;stroke-width:0.5;"/><line style="stroke:#181818;stroke-width:0.5;" x1="391.1457" x2="401.1457" y1="398.14" y2="388.14"/><line style="stroke:#181818;stroke-width:0.5;" x1="282.62" x2="391.1457" y1="398.14" y2="398.14"/><line style="stroke:#181818;stroke-width:0.5;" x1="391.1457" x2="391.1457" y1="398.14" y2="437.2079"/><text fill="#000000" font-family="sans-serif" font-size="14" lengthAdjust="spacing" textLength="78.5257" x="297.62" y="423.1059">privacyIDEA</text></g><!--entity Users--><g id="elem_Users"><path d="M286.66,549.2 L286.66,583.2679 A2.5,2.5 0 0 0 289.16,585.7679 L394.5997,585.7679 A2.5,2.5 0 0 0 397.0997,583.2679 L397.0997,556.7 L387.0997,546.7 L289.16,546.7 A2.5,2.5 0 0 0 286.66,549.2 " fill="#F1F1F1" style="stroke:#181818;stroke-width:0.5;"/><path d="M387.0997,546.7 L387.0997,554.2 A2.5,2.5 0 0 0 389.5997,556.7 L397.0997,556.7 " fill="#F1F1F1" style="stroke:#181818;stroke-width:0.5;"/><text fill="#000000" font-family="sans-serif" font-size="14" lengthAdjust="spacing" textLength="90.4397" x="296.66" y="571.6659">User Resolver</text></g><!--entity Firebase--><g id="elem_Firebase"><polygon fill="#F1F1F1" points="107.07,551.7,117.07,541.7,202.6918,541.7,202.6918,580.7679,192.6918,590.7679,107.07,590.7679,107.07,551.7" style="stroke:#181818;stroke-width:0.5;"/><line style="stroke:#181818;stroke-width:0.5;" x1="192.6918" x2="202.6918" y1="551.7" y2="541.7"/><line style="stroke:#181818;stroke-width:0.5;" x1="107.07" x2="192.6918" y1="551.7" y2="551.7"/><line style="stroke:#181818;stroke-width:0.5;" x1="192.6918" x2="192.6918" y1="551.7" y2="590.7679"/><text fill="#000000" font-family="sans-serif" font-size="14" lengthAdjust="spacing" textLength="55.6218" x="122.07" y="576.6659">Firebase</text></g><!--entity APN--><g id="elem_APN"><polygon fill="#F1F1F1" points="113.85,682.77,123.85,672.77,181.9059,672.77,181.9059,711.8379,171.9059,721.8379,113.85,721.8379,113.85,682.77" style="stroke:#181818;stroke-width:0.5;"/><line style="stroke:#181818;stroke-width:0.5;" x1="171.9059" x2="181.9059" y1="682.77" y2="672.77"/><line style="stroke:#181818;stroke-width:0.5;" x1="113.85" x2="171.9059" y1="682.77" y2="682.77"/><line style="stroke:#181818;stroke-width:0.5;" x1="171.9059" x2="171.9059" y1="682.77" y2="721.8379"/><text fill="#000000" font-family="sans-serif" font-size="14" lengthAdjust="spacing" textLength="28.0559" x="128.85" y="707.7359">APN</text></g><!--entity User--><g id="elem_User"><ellipse cx="107.8789" cy="84.5" fill="#F1F1F1" rx="8" ry="8" style="stroke:#181818;stroke-width:0.5;"/><path d="M107.8789,92.5 L107.8789,119.5 M94.8789,100.5 L120.8789,100.5 M107.8789,119.5 L94.8789,134.5 M107.8789,119.5 L120.8789,134.5 " fill="none" style="stroke:#181818;stroke-width:0.5;"/><text fill="#000000" font-family="sans-serif" font-size="14" lengthAdjust="spacing" textLength="30.6179" x="92.57" y="150.9659">User</text></g><!--entity iPhone--><g id="elem_iPhone"><polygon fill="#F1F1F1" points="16,244.07,26,234.07,101.7518,234.07,101.7518,273.1379,91.7518,283.1379,16,283.1379,16,244.07" style="stroke:#181818;stroke-width:0.5;"/><line style="stroke:#181818;stroke-width:0.5;" x1="91.7518" x2="101.7518" y1="244.07" y2="234.07"/><line style="stroke:#181818;stroke-width:0.5;" x1="16" x2="91.7518" y1="244.07" y2="244.07"/><line style="stroke:#181818;stroke-width:0.5;" x1="91.7518" x2="91.7518" y1="244.07" y2="283.1379"/><text fill="#000000" font-family="sans-serif" font-size="14" lengthAdjust="spacing" textLength="45.7518" x="31" y="269.0359">iPhone</text></g><!--entity Client--><g id="elem_Client"><polygon fill="#F1F1F1" points="137.04,244.07,147.04,234.07,214.7138,234.07,214.7138,273.1379,204.7138,283.1379,137.04,283.1379,137.04,244.07" style="stroke:#181818;stroke-width:0.5;"/><line style="stroke:#181818;stroke-width:0.5;" x1="204.7138" x2="214.7138" y1="244.07" y2="234.07"/><line style="stroke:#181818;stroke-width:0.5;" x1="137.04" x2="204.7138" y1="244.07" y2="244.07"/><line style="stroke:#181818;stroke-width:0.5;" x1="204.7138" x2="204.7138" y1="244.07" y2="283.1379"/><text fill="#000000" font-family="sans-serif" font-size="14" lengthAdjust="spacing" textLength="37.6738" x="152.04" y="269.0359">Client</text></g><!--link User to iPhone--><g id="link_User_iPhone"><path d="M94.36,155.46 C85.64,180.57 76.5403,206.7727 69.1003,228.1727 " fill="none" id="User-to-iPhone" style="stroke:#181818;stroke-width:1.0;stroke-dasharray:1.0,3.0;"/><polygon fill="#181818" points="67.13,233.84,73.8636,226.6526,68.7719,229.1173,66.3073,224.0256,67.13,233.84" style="stroke:#181818;stroke-width:1.0;"/></g><!--link User to Client--><g id="link_User_Client"><path d="M123.65,149.25 C136.13,175.14 150.6443,205.2553 161.8343,228.4653 " fill="none" id="User-to-Client" style="stroke:#181818;stroke-width:1.0;stroke-dasharray:1.0,3.0;"/><polygon fill="#181818" points="164.44,233.87,164.1346,224.0259,162.2686,229.3661,156.9284,227.5001,164.44,233.87" style="stroke:#181818;stroke-width:1.0;"/></g><!--link Client to SP--><g id="link_Client_SP"><path d="M215.17,241.56 C237.64,231.8 266.01,218.47 289.88,204.07 C321.64,184.91 355.17,158.89 377.97,140.21 " fill="none" id="Client-SP" style="stroke:#181818;stroke-width:1.0;"/></g><!--link SP to Client--><g id="link_SP_Client"><path d="M332.46,124.75 C289.07,133.2 235.94,150.34 200.88,185.07 C187.82,198.01 182.6954,212.1746 179.7154,227.9246 " fill="none" id="SP-to-Client" style="stroke:#181818;stroke-width:1.0;stroke-dasharray:7.0,7.0;"/><polygon fill="#181818" points="178.6,233.82,184.2034,225.7205,179.5295,228.9072,176.3429,224.2333,178.6,233.82" style="stroke:#181818;stroke-width:1.0;"/><text fill="#000000" font-family="sans-serif" font-size="13" lengthAdjust="spacing" textLength="79.9501" x="201.88" y="199.967">Require Auth</text></g><!--link SP to IDP--><g id="link_SP_IDP"><path d="M406.22,140.46 C406.59,166.56 407.18,208.07 407.55,234.03 " fill="none" id="SP-IDP" style="stroke:#181818;stroke-width:1.0;"/></g><!--link Client to IDP--><g id="link_Client_IDP"><path d="M214.97,258.6 C247,258.6 287.26,258.6 326.45,258.6 " fill="none" id="Client-to-IDP" style="stroke:#181818;stroke-width:1.0;"/><polygon fill="#181818" points="332.45,258.6,323.45,254.6,327.45,258.6,323.45,262.6,332.45,258.6" style="stroke:#181818;stroke-width:1.0;"/><text fill="#000000" font-family="sans-serif" font-size="13" lengthAdjust="spacing" textLength="82.1471" x="232.76" y="251.497">Request Auth</text></g><!--link IDP to LDAP--><g id="link_IDP_LDAP"><path d="M419.76,283.36 C434.07,312.01 457.99,359.86 472.21,388.33 " fill="none" id="IDP-LDAP" style="stroke:#181818;stroke-width:1.0;"/></g><!--link IDP to PI--><g id="link_IDP_PI"><path d="M397.57,283.36 C385.2,311.85 364.61,359.3 352.23,387.83 " fill="none" id="IDP-PI" style="stroke:#181818;stroke-width:1.0;"/></g><!--link PI to Users--><g id="link_PI_Users"><path d="M341.88,437.69 C341.88,467.9 341.88,519.15 341.88,546.59 " fill="none" id="PI-Users" style="stroke:#181818;stroke-width:1.0;"/></g><!--link PI to Firebase--><g id="link_PI_Firebase"><path d="M304.91,437.62 C291.12,446.93 275.51,457.94 261.88,468.7 C232.42,491.96 205.097,516.9644 183.917,537.1144 " fill="none" id="PI-to-Firebase" style="stroke:#181818;stroke-width:1.0;"/><polygon fill="#181818" points="179.57,541.25,188.8476,537.9446,183.1925,537.8036,183.3335,532.1485,179.57,541.25" style="stroke:#181818;stroke-width:1.0;"/><text fill="#000000" font-family="sans-serif" font-size="13" lengthAdjust="spacing" textLength="70.9411" x="262.88" y="483.597">Push Token</text></g><!--link Firebase to APN--><g id="link_Firebase_APN"><path d="M153.58,591.21 C152.32,614.39 150.7562,643.3289 149.4962,666.4689 " fill="none" id="Firebase-to-APN" style="stroke:#181818;stroke-width:1.0;"/><polygon fill="#181818" points="149.17,672.46,153.6534,663.6908,149.4419,667.4674,145.6653,663.2558,149.17,672.46" style="stroke:#181818;stroke-width:1.0;"/></g><!--link APN to iPhone--><g id="link_APN_iPhone"><path d="M118.61,672.44 C107.66,661.82 96.33,648.41 89.88,633.77 C35.84,511.2 47.8953,350.2696 55.0153,289.1896 " fill="none" id="APN-to-iPhone" style="stroke:#181818;stroke-width:1.0;"/><polygon fill="#181818" points="55.71,283.23,50.6948,291.7063,55.1311,288.1964,58.641,292.6326,55.71,283.23" style="stroke:#181818;stroke-width:1.0;"/></g><!--link iPhone to PI--><g id="link_iPhone_PI"><path d="M86.79,283.46 C96.87,291.49 108.56,300.18 119.88,307.14 C172.51,339.48 231.2094,366.3935 277.0194,385.6635 " fill="none" id="iPhone-to-PI" style="stroke:#181818;stroke-width:1.0;"/><polygon fill="#181818" points="282.55,387.99,275.8051,380.8132,277.9412,386.0513,272.7031,388.1874,282.55,387.99" style="stroke:#181818;stroke-width:1.0;"/><text fill="#000000" font-family="sans-serif" font-size="13" lengthAdjust="spacing" textLength="90.2461" x="166.88" y="330.037">Confirm Token</text></g><!--SRC=[NL31Ri8m3BtdAwpUGTgE790g658bjaNhzW5POsX4IROahOGGVFliD4MmGni_-_dPVXwRgEo-GoZUBKYFnmBE0g1HNaDTlcuJ0h1E4wL6FvW6YUS6ez4Ne0BKyevHQRJHnDCZfLepvpBf5ayXmaOrqVaYwsiLrRSA2Djr-SXzjleVDqtwyMPGpQbQlvGyGLQfj3DyoLT03nyON3Va1JWJakn5YEZs65kYi5nIJdMHbOridSK9hJf35t5RqxbU4-R_UIflZ4VUUyAbV6Dksk1wNKvYDvpbnFZ2RCRsrP83DecY-NnYmOAE-Erf0fHzRE-QbapEPIGlKvbJ99CCp36v8cJ5qMZ029QthKb2zg65JtT0AsvPfl0XzAKu7p4-AKCw2rWvkpF-E7R_0G00]--></g></svg>
